<?xml version="1.0" encoding="UTF-8"?><svg xmlns="http://www.w3.org/2000/svg" xmlns:xlink="http://www.w3.org/1999/xlink" width="600" zoomAndPan="magnify" viewBox="0 0 600 599.999999" height="599.999999" preserveAspectRatio="xMidYMid meet" version="1.0"><defs><clipPath id="clip-0"><path d="M 95.316406 148.308594 L 315.050781 148.308594 L 315.050781 405.542969 L 95.316406 405.542969 Z M 95.316406 148.308594 " clip-rule="nonzero"/></clipPath><clipPath id="clip-1"><path d="M 171.15625 399 L 185 399 L 185 434 L 171.15625 434 Z M 171.15625 399 " clip-rule="nonzero"/></clipPath><clipPath id="clip-2"><path d="M 171.15625 104.382812 L 504.90625 104.382812 L 504.90625 495.886719 L 171.15625 495.886719 Z M 171.15625 104.382812 " clip-rule="nonzero"/></clipPath></defs><path fill="rgb(100%, 100%, 100%)" d="M 300.085938 15.085938 C 142.683594 15.085938 15.085938 142.683594 15.085938 300.085938 C 15.085938 457.484375 142.683594 585.085938 300.085938 585.085938 C 457.484375 585.085938 585.085938 457.484375 585.085938 300.085938 C 585.085938 142.683594 457.484375 15.085938 300.085938 15.085938 Z M 300.085938 15.085938 " fill-opacity="1" fill-rule="nonzero"/><g clip-path="url(#clip-0)"><path fill="rgb(11.759949%, 13.729858%, 14.898682%)" d="M 270.523438 284.914062 C 270.515625 284.929688 259.570312 311.195312 259.570312 311.195312 L 265.117188 271.984375 C 265.160156 271.699219 265.082031 271.410156 264.902344 271.183594 L 254.136719 257.425781 C 256.523438 257.316406 258.886719 256.726562 261.019531 255.65625 L 265.359375 253.476562 L 269.699219 255.65625 C 273.734375 257.683594 278.601562 257.988281 282.882812 256.570312 Z M 242.746094 285.40625 L 248.789062 256.855469 C 249.640625 257.082031 250.507812 257.246094 251.386719 257.339844 L 262.964844 272.132812 L 256.816406 315.5625 L 242.84375 285.613281 Z M 217.046875 396.601562 L 213.347656 334.390625 L 232.074219 325.628906 L 231.472656 328.46875 Z M 201.136719 326.996094 C 201.136719 326.996094 199.285156 318.253906 199.285156 318.253906 L 211.214844 334.121094 L 214.566406 390.433594 L 201.449219 328.46875 Z M 190.484375 354.457031 L 190.484375 313.804688 C 190.484375 313.652344 190.453125 313.5 190.386719 313.359375 L 178.5625 288.046875 L 179.375 286.570312 L 187.347656 272.058594 L 199.007812 327.148438 Z M 177.300781 290.339844 L 188.371094 314.042969 L 188.371094 351.507812 L 172.1875 299.648438 Z M 126.878906 256.355469 C 131.304688 258.011719 136.441406 257.78125 140.667969 255.65625 L 145.007812 253.476562 L 149.347656 255.65625 C 151.316406 256.648438 153.484375 257.222656 155.683594 257.394531 L 162.113281 271.328125 L 159.390625 315.53125 L 142.921875 285.550781 Z M 140.46875 223.574219 L 146.457031 228.234375 L 133.242188 254.347656 C 130.972656 254.390625 128.695312 253.90625 126.671875 252.886719 L 125.316406 252.207031 Z M 173.480469 227.332031 L 152.753906 247.816406 L 166.71875 218.953125 C 166.804688 218.773438 166.839844 218.566406 166.816406 218.367188 L 164.648438 200.773438 L 178.238281 216.15625 Z M 207.121094 153.679688 L 209.300781 178.917969 L 202.34375 177.1875 C 201.941406 177.089844 201.515625 177.230469 201.257812 177.558594 C 201 177.882812 200.957031 178.328125 201.148438 178.695312 L 209.457031 194.804688 L 212.285156 215.558594 L 199.582031 203.011719 C 199.53125 202.960938 199.476562 202.914062 199.417969 202.878906 C 199.40625 202.871094 199.398438 202.863281 199.390625 202.859375 C 199.371094 202.847656 199.347656 202.835938 199.328125 202.824219 C 199.304688 202.8125 199.277344 202.800781 199.253906 202.789062 C 199.203125 202.769531 199.167969 202.757812 199.136719 202.746094 C 199.101562 202.738281 199.066406 202.726562 199.035156 202.722656 C 199.019531 202.71875 199.007812 202.71875 199 202.71875 C 198.976562 202.714844 198.953125 202.710938 198.929688 202.707031 C 198.914062 202.707031 198.894531 202.707031 198.878906 202.707031 C 198.863281 202.707031 198.847656 202.703125 198.832031 202.703125 C 198.8125 202.703125 198.789062 202.707031 198.769531 202.707031 C 198.757812 202.707031 198.742188 202.710938 198.726562 202.710938 C 198.707031 202.710938 198.6875 202.714844 198.667969 202.71875 C 198.652344 202.722656 198.640625 202.722656 198.628906 202.726562 C 198.609375 202.730469 198.589844 202.734375 198.570312 202.742188 C 198.558594 202.746094 198.542969 202.746094 198.527344 202.753906 C 198.511719 202.757812 198.496094 202.761719 198.480469 202.769531 C 198.460938 202.773438 198.445312 202.78125 198.429688 202.785156 C 198.414062 202.792969 198.402344 202.796875 198.386719 202.808594 C 198.371094 202.816406 198.351562 202.824219 198.335938 202.832031 C 198.324219 202.839844 198.3125 202.847656 198.300781 202.851562 C 198.28125 202.863281 198.265625 202.875 198.246094 202.886719 C 198.234375 202.894531 198.222656 202.902344 198.210938 202.914062 C 198.195312 202.921875 198.179688 202.933594 198.167969 202.945312 C 198.152344 202.957031 198.136719 202.972656 198.121094 202.984375 C 198.113281 202.992188 198.105469 203 198.097656 203.011719 L 177.445312 223.414062 L 186.753906 201.539062 Z M 214.4375 215.703125 L 211.527344 194.34375 C 211.511719 194.222656 211.472656 194.105469 211.417969 194 L 204.09375 179.800781 L 210.222656 181.324219 C 210.554688 181.40625 210.90625 181.324219 211.164062 181.101562 C 211.425781 180.882812 211.5625 180.546875 211.53125 180.207031 L 209.371094 155.132812 L 228.582031 195.761719 Z M 218.191406 297.597656 L 193.515625 259.6875 C 193.507812 259.675781 190.378906 254.867188 190.378906 254.867188 L 193.148438 253.476562 L 197.488281 255.65625 C 202.234375 258.042969 208.132812 258.042969 212.878906 255.65625 L 217.21875 253.476562 L 221.558594 255.65625 C 226.304688 258.042969 232.203125 258.042969 236.949219 255.65625 L 241.289062 253.476562 L 245.523438 255.601562 Z M 222.933594 229.054688 L 243.199219 250.964844 L 241.984375 250.355469 C 241.546875 250.136719 241.03125 250.136719 240.59375 250.355469 L 235.554688 252.886719 C 231.667969 254.84375 226.839844 254.84375 222.953125 252.886719 L 217.914062 250.355469 C 217.476562 250.136719 216.960938 250.136719 216.523438 250.355469 L 211.484375 252.886719 C 207.601562 254.84375 202.769531 254.84375 198.882812 252.886719 L 193.84375 250.355469 C 193.40625 250.136719 192.890625 250.136719 192.449219 250.355469 L 187.417969 252.886719 C 184.109375 254.550781 180.121094 254.796875 176.609375 253.632812 L 195.164062 228.957031 C 195.261719 228.828125 195.328125 228.671875 195.355469 228.511719 L 199.515625 205.917969 Z M 197.191406 206.875 L 193.320312 227.886719 L 174.621094 252.765625 C 174.605469 252.785156 169.777344 250.355469 169.777344 250.355469 C 169.335938 250.136719 168.820312 250.136719 168.382812 250.355469 L 163.347656 252.886719 C 159.457031 254.84375 154.628906 254.84375 150.738281 252.886719 L 150.664062 252.851562 Z M 148.738281 228.410156 C 148.742188 228.40625 162.558594 201.09375 162.558594 201.09375 L 164.679688 218.316406 L 148.496094 251.761719 L 145.707031 250.355469 C 145.265625 250.136719 144.75 250.136719 144.3125 250.355469 L 139.277344 252.886719 C 138.160156 253.449219 136.972656 253.847656 135.746094 254.085938 Z M 177.523438 285.550781 L 161.5625 314.59375 L 164.238281 271.191406 C 164.25 271.019531 164.21875 270.84375 164.144531 270.6875 L 158.023438 257.417969 C 160.355469 257.289062 162.65625 256.703125 164.738281 255.65625 L 169.078125 253.476562 L 173.417969 255.65625 C 178.054688 257.988281 183.789062 258.039062 188.476562 255.816406 L 191.394531 260.300781 Z M 198.246094 313.359375 L 188.90625 269.222656 L 192.703125 262.308594 L 217.078125 299.761719 L 211.625 331.152344 Z M 240.605469 285.3125 L 232.621094 323.039062 L 213.636719 331.925781 L 219.195312 299.929688 L 246.34375 258.214844 Z M 248.40625 253.488281 L 224.472656 227.605469 C 224.460938 227.59375 224.449219 227.582031 224.4375 227.570312 L 215.128906 218.375 L 230.65625 196.492188 C 230.65625 196.488281 237.476562 186.878906 237.476562 186.878906 L 244.199219 216.664062 L 240.605469 234.128906 C 240.519531 234.542969 240.6875 234.96875 241.039062 235.207031 C 241.386719 235.449219 241.847656 235.457031 242.207031 235.230469 L 250.175781 230.167969 L 258.816406 253.261719 C 255.546875 254.636719 251.738281 254.714844 248.40625 253.488281 Z M 256.582031 225.644531 C 256.582031 225.648438 268.921875 251.796875 268.921875 251.796875 L 266.054688 250.355469 C 265.617188 250.136719 265.101562 250.136719 264.664062 250.355469 L 260.726562 252.335938 L 251.699219 228.210938 C 251.585938 227.910156 251.347656 227.679688 251.042969 227.578125 C 250.742188 227.476562 250.410156 227.519531 250.140625 227.6875 L 243.175781 232.109375 L 246.316406 216.867188 C 246.347656 216.71875 246.347656 216.566406 246.3125 216.417969 L 240.886719 192.390625 L 253.417969 218.945312 Z M 267.886719 217.210938 L 283.648438 252.914062 C 280.050781 254.699219 275.664062 254.824219 271.960938 253.285156 L 261.136719 230.34375 L 258.828125 225.457031 Z M 314.886719 251.042969 C 314.503906 250.28125 313.570312 249.972656 312.804688 250.355469 L 307.769531 252.886719 C 303.882812 254.84375 299.054688 254.84375 295.164062 252.886719 L 290.125 250.355469 C 289.6875 250.136719 289.171875 250.136719 288.734375 250.355469 L 285.539062 251.964844 L 269.226562 215.015625 C 269.089844 214.703125 268.8125 214.476562 268.480469 214.40625 C 268.148438 214.335938 267.800781 214.429688 267.546875 214.660156 L 257.886719 223.457031 L 239.105469 183.65625 C 238.941406 183.316406 238.613281 183.085938 238.242188 183.054688 C 237.863281 183.019531 237.503906 183.191406 237.285156 183.496094 L 229.988281 193.78125 L 208.765625 148.914062 C 208.738281 148.859375 208.714844 148.816406 208.691406 148.777344 C 208.664062 148.738281 208.636719 148.703125 208.605469 148.667969 C 208.390625 148.4375 208.109375 148.304688 207.800781 148.308594 C 207.753906 148.3125 207.738281 148.308594 207.71875 148.3125 C 207.699219 148.3125 207.679688 148.316406 207.65625 148.320312 C 207.644531 148.320312 207.636719 148.320312 207.628906 148.324219 C 207.582031 148.332031 207.539062 148.34375 207.496094 148.355469 C 207.4375 148.375 207.398438 148.390625 207.363281 148.40625 C 207.300781 148.441406 207.261719 148.460938 207.222656 148.484375 C 207.175781 148.515625 207.144531 148.542969 207.113281 148.570312 C 207.105469 148.578125 207.097656 148.582031 207.089844 148.589844 C 207.058594 148.621094 207.027344 148.652344 207 148.6875 C 206.964844 148.730469 206.941406 148.761719 206.917969 148.800781 C 206.914062 148.808594 206.90625 148.816406 206.902344 148.824219 C 206.878906 148.863281 206.859375 148.90625 206.839844 148.949219 C 206.835938 148.949219 179.15625 214 179.15625 214 L 163.984375 196.828125 C 163.945312 196.785156 163.921875 196.761719 163.894531 196.734375 C 163.886719 196.726562 163.875 196.722656 163.867188 196.714844 C 163.84375 196.695312 163.824219 196.679688 163.800781 196.660156 C 163.789062 196.652344 163.78125 196.648438 163.769531 196.640625 C 163.742188 196.621094 163.714844 196.605469 163.6875 196.589844 C 163.632812 196.5625 163.597656 196.546875 163.5625 196.53125 C 163.507812 196.515625 163.480469 196.503906 163.449219 196.496094 C 163.4375 196.492188 163.425781 196.492188 163.414062 196.488281 C 163.386719 196.484375 163.359375 196.476562 163.332031 196.472656 C 163.316406 196.472656 163.304688 196.472656 163.292969 196.46875 C 163.265625 196.464844 163.234375 196.464844 163.207031 196.460938 C 163.195312 196.460938 163.183594 196.460938 163.171875 196.460938 C 163.132812 196.460938 163.09375 196.464844 163.054688 196.472656 C 163 196.480469 162.964844 196.484375 162.933594 196.492188 C 162.921875 196.496094 162.910156 196.5 162.898438 196.503906 C 162.871094 196.511719 162.839844 196.519531 162.816406 196.527344 C 162.804688 196.53125 162.792969 196.539062 162.785156 196.542969 C 162.753906 196.554688 162.726562 196.566406 162.699219 196.582031 C 162.691406 196.585938 162.683594 196.589844 162.675781 196.59375 C 162.605469 196.632812 162.539062 196.679688 162.480469 196.730469 C 162.472656 196.734375 162.464844 196.746094 162.460938 196.753906 C 162.4375 196.773438 162.417969 196.792969 162.398438 196.816406 C 162.390625 196.824219 162.382812 196.832031 162.371094 196.84375 C 162.355469 196.863281 162.335938 196.886719 162.324219 196.910156 C 162.316406 196.917969 162.308594 196.929688 162.300781 196.9375 C 162.28125 196.972656 162.257812 197.003906 162.238281 197.042969 C 162.238281 197.042969 147.429688 226.316406 147.429688 226.316406 L 140.777344 221.132812 C 140.527344 220.941406 140.210938 220.867188 139.90625 220.933594 C 139.601562 221 139.339844 221.199219 139.191406 221.472656 L 123.429688 251.261719 L 121.636719 250.355469 C 121.195312 250.136719 120.679688 250.136719 120.242188 250.355469 L 115.207031 252.886719 C 111.320312 254.84375 106.488281 254.84375 102.601562 252.886719 L 97.566406 250.355469 C 96.800781 249.972656 95.871094 250.28125 95.484375 251.042969 C 95.097656 251.8125 95.40625 252.742188 96.171875 253.125 L 101.207031 255.65625 C 105.953125 258.042969 111.851562 258.042969 116.597656 255.65625 L 120.9375 253.476562 L 123.628906 254.828125 L 141.066406 286.570312 L 159.292969 319.746094 C 159.320312 319.792969 159.34375 319.828125 159.367188 319.863281 C 159.40625 319.90625 159.425781 319.933594 159.449219 319.960938 C 159.457031 319.96875 159.46875 319.976562 159.476562 319.984375 C 159.5 320.011719 159.527344 320.035156 159.554688 320.054688 C 159.601562 320.097656 159.640625 320.121094 159.675781 320.140625 C 159.726562 320.171875 159.757812 320.1875 159.792969 320.199219 C 159.800781 320.203125 159.8125 320.210938 159.820312 320.210938 C 159.855469 320.230469 159.894531 320.242188 159.933594 320.253906 C 159.980469 320.265625 160.023438 320.273438 160.066406 320.28125 C 160.078125 320.28125 160.089844 320.28125 160.101562 320.285156 C 160.121094 320.285156 160.136719 320.292969 160.15625 320.292969 C 160.175781 320.292969 160.199219 320.292969 160.222656 320.292969 C 160.265625 320.292969 160.308594 320.289062 160.351562 320.285156 C 160.359375 320.28125 160.371094 320.28125 160.382812 320.28125 C 160.417969 320.273438 160.453125 320.265625 160.488281 320.257812 C 160.546875 320.242188 160.589844 320.226562 160.628906 320.210938 C 160.679688 320.1875 160.710938 320.171875 160.742188 320.15625 C 160.75 320.148438 160.761719 320.144531 160.769531 320.136719 C 160.804688 320.117188 160.839844 320.09375 160.871094 320.066406 C 160.910156 320.039062 160.9375 320.011719 160.964844 319.984375 C 160.972656 319.976562 160.980469 319.96875 160.988281 319.960938 C 161.015625 319.933594 161.042969 319.902344 161.066406 319.871094 C 161.097656 319.832031 161.121094 319.792969 161.140625 319.757812 C 161.144531 319.746094 170.777344 302.21875 170.777344 302.21875 L 188.417969 358.75 C 188.421875 358.765625 188.882812 360.230469 188.882812 360.230469 C 189.019531 360.671875 189.425781 360.976562 189.890625 360.976562 C 190.351562 360.976562 190.757812 360.671875 190.898438 360.230469 L 199.902344 331.378906 L 215.425781 404.707031 C 215.433594 404.746094 215.4375 404.761719 215.445312 404.777344 C 215.449219 404.792969 215.453125 404.804688 215.457031 404.824219 C 215.460938 404.839844 215.46875 404.851562 215.472656 404.867188 C 215.480469 404.882812 215.484375 404.898438 215.492188 404.914062 C 215.496094 404.925781 215.503906 404.941406 215.511719 404.953125 C 215.519531 404.972656 215.527344 404.984375 215.535156 405 C 215.542969 405.011719 215.546875 405.027344 215.554688 405.039062 C 215.566406 405.054688 215.578125 405.070312 215.589844 405.089844 C 215.597656 405.097656 215.601562 405.105469 215.609375 405.113281 C 215.625 405.140625 215.644531 405.164062 215.667969 405.1875 C 215.695312 405.214844 215.714844 405.238281 215.730469 405.253906 C 215.738281 405.261719 215.75 405.269531 215.757812 405.277344 C 215.769531 405.292969 215.785156 405.304688 215.800781 405.316406 C 215.8125 405.324219 215.824219 405.332031 215.832031 405.339844 C 215.847656 405.347656 215.863281 405.359375 215.875 405.371094 C 215.886719 405.378906 215.902344 405.382812 215.914062 405.390625 C 215.929688 405.402344 215.941406 405.40625 215.957031 405.417969 C 215.96875 405.421875 215.984375 405.429688 215.996094 405.4375 C 216.011719 405.445312 216.023438 405.449219 216.039062 405.457031 C 216.054688 405.464844 216.070312 405.46875 216.085938 405.472656 C 216.097656 405.480469 216.113281 405.484375 216.128906 405.488281 C 216.144531 405.496094 216.15625 405.5 216.171875 405.503906 C 216.191406 405.511719 216.203125 405.511719 216.21875 405.515625 C 216.234375 405.519531 216.25 405.523438 216.265625 405.527344 C 216.285156 405.53125 216.300781 405.53125 216.320312 405.535156 C 216.332031 405.535156 216.347656 405.539062 216.359375 405.539062 C 216.390625 405.542969 216.417969 405.542969 216.449219 405.542969 C 216.480469 405.542969 216.5 405.542969 216.523438 405.542969 C 216.558594 405.539062 216.582031 405.535156 216.609375 405.53125 C 216.617188 405.53125 216.625 405.53125 216.632812 405.53125 C 216.667969 405.523438 216.699219 405.515625 216.730469 405.507812 C 216.773438 405.496094 216.800781 405.488281 216.824219 405.480469 C 216.835938 405.472656 216.847656 405.46875 216.863281 405.464844 C 216.878906 405.457031 216.894531 405.449219 216.910156 405.441406 C 216.925781 405.4375 216.941406 405.425781 216.953125 405.421875 C 216.96875 405.414062 216.980469 405.40625 216.996094 405.394531 C 217.011719 405.386719 217.023438 405.382812 217.035156 405.375 C 217.050781 405.363281 217.066406 405.351562 217.078125 405.339844 C 217.089844 405.335938 217.101562 405.324219 217.113281 405.316406 C 217.125 405.304688 217.144531 405.292969 217.160156 405.277344 C 217.167969 405.269531 217.175781 405.261719 217.183594 405.257812 C 217.207031 405.238281 217.226562 405.214844 217.242188 405.195312 C 217.273438 405.164062 217.292969 405.136719 217.3125 405.113281 C 217.335938 405.078125 217.351562 405.054688 217.363281 405.035156 C 217.371094 405.023438 217.375 405.011719 217.378906 405.003906 C 217.390625 404.984375 217.402344 404.96875 217.410156 404.949219 C 217.414062 404.9375 217.421875 404.925781 217.425781 404.910156 C 217.433594 404.894531 217.441406 404.878906 217.445312 404.859375 C 217.453125 404.847656 217.457031 404.832031 217.460938 404.820312 C 217.46875 404.800781 217.472656 404.785156 217.476562 404.769531 C 217.480469 404.753906 217.484375 404.738281 217.488281 404.722656 C 217.492188 404.707031 233.539062 328.90625 233.539062 328.90625 L 242.019531 288.84375 L 256.40625 319.683594 C 256.429688 319.726562 256.449219 319.769531 256.476562 319.808594 C 256.480469 319.816406 256.488281 319.824219 256.492188 319.832031 C 256.515625 319.863281 256.539062 319.894531 256.558594 319.917969 C 256.566406 319.925781 256.570312 319.933594 256.578125 319.941406 C 256.609375 319.972656 256.636719 320.003906 256.671875 320.035156 C 256.679688 320.039062 256.6875 320.046875 256.695312 320.050781 C 256.722656 320.074219 256.753906 320.097656 256.785156 320.117188 C 256.84375 320.15625 256.882812 320.175781 256.921875 320.195312 C 256.976562 320.21875 257.011719 320.234375 257.046875 320.242188 C 257.058594 320.246094 257.070312 320.25 257.085938 320.253906 C 257.121094 320.265625 257.160156 320.273438 257.199219 320.277344 C 257.265625 320.289062 257.316406 320.292969 257.367188 320.292969 C 257.445312 320.292969 257.492188 320.285156 257.535156 320.277344 C 257.589844 320.269531 257.636719 320.257812 257.679688 320.246094 C 257.746094 320.222656 257.789062 320.207031 257.828125 320.1875 C 257.875 320.164062 257.910156 320.140625 257.945312 320.117188 C 258.003906 320.078125 258.039062 320.050781 258.070312 320.023438 C 258.078125 320.019531 258.082031 320.011719 258.089844 320.003906 C 258.121094 319.976562 258.152344 319.941406 258.179688 319.910156 C 258.210938 319.871094 258.238281 319.832031 258.261719 319.792969 C 258.300781 319.730469 258.320312 319.691406 258.335938 319.648438 C 258.339844 319.644531 272.464844 285.75 272.464844 285.75 L 285.726562 255.335938 L 289.429688 253.476562 L 293.769531 255.65625 C 296.144531 256.851562 298.804688 257.445312 301.464844 257.445312 C 304.128906 257.445312 306.789062 256.851562 309.160156 255.65625 L 314.199219 253.125 C 314.964844 252.742188 315.269531 251.8125 314.886719 251.042969 " fill-opacity="1" fill-rule="nonzero"/></g><path fill="rgb(11.759949%, 13.729858%, 14.898682%)" d="M 189.023438 202.945312 C 189.15625 203 189.292969 203.027344 189.429688 203.027344 C 189.84375 203.027344 190.238281 202.78125 190.40625 202.375 L 197.445312 185.457031 C 197.671875 184.917969 197.417969 184.300781 196.875 184.074219 C 196.339844 183.851562 195.71875 184.109375 195.492188 184.644531 L 188.453125 201.5625 C 188.230469 202.101562 188.484375 202.71875 189.023438 202.945312 " fill-opacity="1" fill-rule="nonzero"/><path fill="rgb(11.759949%, 13.729858%, 14.898682%)" d="M 229.636719 242.566406 C 229.84375 242.773438 230.113281 242.878906 230.386719 242.878906 C 230.65625 242.878906 230.921875 242.777344 231.128906 242.574219 C 231.542969 242.160156 231.546875 241.496094 231.136719 241.082031 L 219.960938 229.828125 C 219.550781 229.414062 218.882812 229.410156 218.46875 229.820312 C 218.054688 230.234375 218.050781 230.902344 218.460938 231.316406 L 229.636719 242.566406 " fill-opacity="1" fill-rule="nonzero"/><path fill="rgb(11.759949%, 13.729858%, 14.898682%)" d="M 214.46875 227.292969 C 214.675781 227.5 214.945312 227.605469 215.21875 227.605469 C 215.488281 227.605469 215.757812 227.503906 215.964844 227.300781 C 216.375 226.886719 216.378906 226.222656 215.96875 225.804688 L 211.230469 221.03125 C 210.816406 220.617188 210.148438 220.617188 209.734375 221.027344 C 209.320312 221.4375 209.316406 222.105469 209.730469 222.519531 L 214.46875 227.292969 " fill-opacity="1" fill-rule="nonzero"/><path fill="rgb(11.759949%, 13.729858%, 14.898682%)" d="M 150.226562 231.519531 C 150.378906 231.59375 150.535156 231.628906 150.695312 231.628906 C 151.082031 231.628906 151.457031 231.410156 151.644531 231.039062 L 159.144531 215.910156 C 159.402344 215.386719 159.1875 214.753906 158.664062 214.492188 C 158.140625 214.234375 157.507812 214.449219 157.25 214.96875 L 149.75 230.101562 C 149.492188 230.625 149.703125 231.257812 150.226562 231.519531 " fill-opacity="1" fill-rule="nonzero"/><path fill="rgb(11.759949%, 13.729858%, 14.898682%)" d="M 273.953125 242.242188 C 274.125 242.640625 274.515625 242.878906 274.925781 242.878906 C 275.066406 242.878906 275.207031 242.851562 275.339844 242.796875 C 275.878906 242.5625 276.125 241.941406 275.898438 241.40625 L 271.574219 231.328125 C 271.34375 230.789062 270.722656 230.542969 270.1875 230.769531 C 269.652344 231 269.402344 231.621094 269.632812 232.15625 L 273.953125 242.242188 " fill-opacity="1" fill-rule="nonzero"/><path fill="rgb(11.759949%, 13.729858%, 14.898682%)" d="M 241.402344 217.460938 C 240.828125 217.34375 240.269531 217.707031 240.148438 218.277344 L 237.78125 229.578125 C 237.660156 230.148438 238.027344 230.707031 238.597656 230.828125 C 238.671875 230.84375 238.742188 230.851562 238.816406 230.851562 C 239.304688 230.851562 239.746094 230.507812 239.851562 230.011719 L 242.21875 218.710938 C 242.335938 218.140625 241.972656 217.578125 241.402344 217.460938 " fill-opacity="1" fill-rule="nonzero"/><path fill="rgb(11.759949%, 13.729858%, 14.898682%)" d="M 155.378906 299.039062 L 146.320312 282.007812 C 146.046875 281.492188 145.40625 281.296875 144.890625 281.570312 C 144.375 281.84375 144.179688 282.484375 144.453125 283 L 153.511719 300.03125 C 153.703125 300.386719 154.070312 300.589844 154.445312 300.589844 C 154.613281 300.589844 154.785156 300.550781 154.941406 300.46875 C 155.457031 300.195312 155.652344 299.554688 155.378906 299.039062 " fill-opacity="1" fill-rule="nonzero"/><path fill="rgb(11.759949%, 13.729858%, 14.898682%)" d="M 238.375 283.242188 C 237.804688 283.113281 237.242188 283.476562 237.113281 284.046875 L 232.511719 304.914062 C 232.386719 305.484375 232.746094 306.050781 233.316406 306.171875 C 233.394531 306.191406 233.46875 306.199219 233.546875 306.199219 C 234.03125 306.199219 234.46875 305.863281 234.578125 305.371094 L 239.179688 284.5 C 239.304688 283.929688 238.945312 283.367188 238.375 283.242188 " fill-opacity="1" fill-rule="nonzero"/><path fill="rgb(11.759949%, 13.729858%, 14.898682%)" d="M 232.691406 308.183594 C 232.121094 308.050781 231.554688 308.40625 231.425781 308.972656 L 230.363281 313.570312 C 230.230469 314.136719 230.585938 314.703125 231.152344 314.835938 C 231.234375 314.855469 231.3125 314.863281 231.394531 314.863281 C 231.875 314.863281 232.308594 314.53125 232.421875 314.042969 L 233.484375 309.449219 C 233.613281 308.878906 233.257812 308.3125 232.691406 308.183594 " fill-opacity="1" fill-rule="nonzero"/><path fill="rgb(11.759949%, 13.729858%, 14.898682%)" d="M 277.335938 261.128906 C 276.796875 260.90625 276.179688 261.160156 275.953125 261.699219 L 270.515625 274.789062 C 270.292969 275.324219 270.546875 275.945312 271.085938 276.167969 C 271.21875 276.222656 271.355469 276.25 271.492188 276.25 C 271.90625 276.25 272.300781 276.003906 272.46875 275.597656 L 277.90625 262.511719 C 278.128906 261.96875 277.875 261.351562 277.335938 261.128906 " fill-opacity="1" fill-rule="nonzero"/><path fill="rgb(11.759949%, 13.729858%, 14.898682%)" d="M 222.230469 358.878906 C 221.660156 358.777344 221.105469 359.15625 221.003906 359.730469 L 219.242188 369.527344 C 219.140625 370.101562 219.523438 370.648438 220.097656 370.753906 C 220.160156 370.765625 220.222656 370.769531 220.285156 370.769531 C 220.789062 370.769531 221.230469 370.410156 221.324219 369.898438 L 223.085938 360.105469 C 223.1875 359.53125 222.808594 358.980469 222.230469 358.878906 " fill-opacity="1" fill-rule="nonzero"/><path fill="rgb(11.759949%, 13.729858%, 14.898682%)" d="M 219.714844 371.914062 C 219.144531 371.785156 218.578125 372.136719 218.445312 372.707031 L 218.09375 374.238281 C 217.960938 374.808594 218.316406 375.375 218.882812 375.507812 C 218.964844 375.523438 219.042969 375.53125 219.121094 375.53125 C 219.605469 375.53125 220.039062 375.203125 220.152344 374.714844 L 220.503906 373.179688 C 220.636719 372.613281 220.28125 372.042969 219.714844 371.914062 " fill-opacity="1" fill-rule="nonzero"/><g clip-path="url(#clip-1)"><path fill="rgb(11.759949%, 13.729858%, 14.898682%)" d="M 177.933594 433.027344 C 181.414062 433.027344 184.226562 430.210938 184.226562 426.734375 L 184.226562 405.789062 C 184.226562 402.308594 181.414062 399.496094 177.933594 399.496094 C 174.453125 399.496094 171.636719 402.308594 171.636719 405.789062 L 171.636719 426.734375 C 171.636719 430.210938 174.453125 433.027344 177.933594 433.027344 " fill-opacity="1" fill-rule="nonzero"/></g><g clip-path="url(#clip-2)"><path fill="rgb(11.759949%, 13.729858%, 14.898682%)" d="M 482.019531 202.136719 C 467.136719 174.476562 446.097656 152.015625 419.464844 135.378906 C 403.859375 125.734375 384.621094 118.070312 362.300781 112.601562 C 340.109375 107.160156 309.9375 104.398438 272.613281 104.398438 L 177.933594 104.398438 C 174.453125 104.398438 171.636719 107.214844 171.636719 110.695312 C 171.636719 114.171875 174.453125 116.988281 177.933594 116.988281 L 272.613281 116.988281 C 308.925781 116.988281 338.089844 119.625 359.300781 124.832031 C 380.34375 129.980469 398.363281 137.136719 412.816406 146.066406 C 437.550781 161.523438 457.105469 182.390625 470.933594 208.101562 C 484.792969 233.863281 491.816406 264.976562 491.816406 300.558594 C 491.816406 333.789062 484.492188 364.296875 470.042969 391.246094 C 455.625 418.125 436.207031 439.246094 412.347656 454.019531 C 395.703125 464.296875 376.871094 471.816406 356.375 476.394531 C 335.648438 481.023438 307.816406 483.367188 273.628906 483.367188 L 184.226562 483.367188 L 184.226562 466.054688 C 184.226562 462.578125 181.414062 459.761719 177.933594 459.761719 C 174.453125 459.761719 171.636719 462.578125 171.636719 466.054688 L 171.636719 495.953125 L 273.628906 495.953125 C 308.738281 495.953125 337.492188 493.503906 359.113281 488.671875 C 380.980469 483.804688 401.113281 475.75 418.960938 464.726562 C 444.738281 448.765625 465.664062 426.054688 481.132812 397.195312 C 496.578125 368.398438 504.40625 335.886719 504.40625 300.558594 C 504.40625 262.867188 496.875 229.757812 482.019531 202.136719 " fill-opacity="1" fill-rule="nonzero"/></g><path fill="rgb(11.759949%, 13.729858%, 14.898682%)" d="M 385.53125 415.898438 C 371.160156 425.097656 355.152344 431.484375 337.945312 434.871094 C 320.363281 438.34375 299.40625 440.101562 275.667969 440.101562 L 254.917969 440.101562 C 251.441406 440.101562 248.625 442.914062 248.625 446.394531 C 248.625 449.871094 251.441406 452.6875 254.917969 452.6875 L 275.667969 452.6875 C 300.222656 452.6875 322 450.847656 340.382812 447.226562 C 359.140625 443.53125 376.613281 436.554688 392.316406 426.5 C 412.0625 413.871094 427.089844 396.984375 436.976562 376.320312 C 446.761719 355.882812 451.722656 330.136719 451.722656 299.796875 C 451.722656 269.257812 446.269531 243.039062 435.515625 221.867188 C 424.636719 200.488281 408.214844 183.417969 386.691406 171.144531 C 371.222656 162.355469 354.574219 156.175781 337.207031 152.753906 C 320.09375 149.378906 299.394531 147.667969 275.667969 147.667969 C 272.1875 147.667969 269.371094 150.484375 269.371094 153.960938 C 269.371094 157.441406 272.1875 160.257812 275.667969 160.257812 C 298.578125 160.257812 318.457031 161.886719 334.769531 165.105469 C 350.8125 168.257812 366.1875 173.972656 380.464844 182.082031 C 399.804688 193.121094 414.550781 208.421875 424.292969 227.570312 C 434.136719 246.957031 439.136719 271.253906 439.136719 299.796875 C 439.136719 328.238281 434.589844 352.160156 425.621094 370.886719 C 416.765625 389.402344 403.273438 404.546875 385.53125 415.898438 " fill-opacity="1" fill-rule="nonzero"/></svg>